<svg id="Logo" xmlns="http://www.w3.org/2000/svg" viewBox="0 0 109.55452 48.73494"><defs><style>.cls-1,.cls-4,.cls-5{fill:#231815;}.cls-1,.cls-5{stroke:#231815;}.cls-1,.cls-2,.cls-3{stroke-width:1.5px;}.cls-1{opacity:0.9;}.cls-2{fill:#595757;stroke:#595757;opacity:0.8;}.cls-3{fill:#d4edfb;stroke:#d4edfb;opacity:0.4;}</style></defs><title>YoungS</title><rect id="R3" class="cls-1" x="5.21716" y="0.75" width="88.76935" height="42.78265" rx="6.71712"/><rect id="R2" class="cls-2" x="2.98358" y="2.97615" width="88.76935" height="42.78265" rx="6.71712"/><rect id="R1" class="cls-3" x="0.75" y="5.20229" width="88.76935" height="42.78265" rx="6.71712"/><g id="S"><path class="cls-4" d="M149.9554,329.55268a1.16006,1.16006,0,0,0,.31382-.17634,2.85854,2.85854,0,0,1,.23551-.17634.583.583,0,0,0,.15662.11775c.0522.02611.10383.05221.15661.07831l.03945.19607a1.622,1.622,0,0,0,.27437-.07889.71157.71157,0,0,1,.21579.11775.29036.29036,0,0,0,.17634.07831.26448.26448,0,0,0,.19606.07889l.19606.11717a.47276.47276,0,0,0,.19607.11776,3.71442,3.71442,0,0,0,.431.39212,1.38155,1.38155,0,0,1,.27437.27438.59014.59014,0,0,0,.31382.27437.79377.79377,0,0,1,.19606.27437c0,.105.07831.22217.23493.35268a.35451.35451,0,0,0,0,.23551,1.06107,1.06107,0,0,1-.05859.333,1.24209,1.24209,0,0,1-.13747.29409l-.15662.07831-.15662.03945a1.19333,1.19333,0,0,1-.35326.50988l-.58761.11717-.07889.07889-.62706.31324-2.97923,2.58769-4.39112,3.4108-.15662.39155a1.93909,1.93909,0,0,0-.07831.70594,5.78543,5.78543,0,0,1-.0783.94087l-.03945.35268a.22525.22525,0,0,0,.03945.1572l.15661-.07889a.15839.15839,0,0,0,.03887.11775q-.03915.275-.15662.902-.11746.62734-.27437,1.1758a1.19707,1.19707,0,0,0-.11776.431v.23551l.19607-.15662a.32854.32854,0,0,1,0,.31324,9.94718,9.94718,0,0,0-.19607,1.09807,7.8531,7.8531,0,0,1-.15661.97973.27727.27727,0,0,0,.03944.23551l.11717-.19606a16.82835,16.82835,0,0,0-.31323,3.48911q.07743.70566.07831.97974a5.03519,5.03519,0,0,0,.07831.82369,2.125,2.125,0,0,1,.03944.47044,2.72942,2.72942,0,0,1-.03944.5093,14.64676,14.64676,0,0,0,.03944,1.76457l-.27495.15662.07889.70536h-.07889a1.49483,1.49483,0,0,1-.27438-.39155h-.31323a.5427.5427,0,0,0-.35326.19549l-.07831.23551a1.86794,1.86794,0,0,1-.5093-.11776q-.19665-.11747-.706.11776a.327.327,0,0,0-.11775.31381v.27438a.58412.58412,0,0,1-.431,0,1.613,1.613,0,0,0-.41185.03886.58914.58914,0,0,0-.25465.1572.32541.32541,0,0,0,.07831.31324h-.23493a5.96432,5.96432,0,0,1-.31382-.70537h-.11775a.15563.15563,0,0,1-.11717-.03944l-.23551-.15662-.07831-.11776-.35268-.15661-.43157.19606-.11776-.07831a.11723.11723,0,0,0-.11717-.01972.2517.2517,0,0,0-.11776.05858.22345.22345,0,0,1-.15661.03945l-.1572-.07831-.07831-.43157a1.735,1.735,0,0,1-.15662-.58819.89993.89993,0,0,0-.23551-.54875H136.47q-.11834.19665-.21579.39213a3.11151,3.11151,0,0,1-.17634.31382l-.19606-.35326a4.03421,4.03421,0,0,1,.19606-1.058,4.32249,4.32249,0,0,0,.15662-.94087v-.11775a.85134.85134,0,0,1-.15662-.35269l.23493-.27437-.15662-.19606a.2977.2977,0,0,1,.07831-.47044.33995.33995,0,0,0,.15662-.27437.83982.83982,0,0,1,.43157-.62763q.46986-.31324.6665-3.37136l.03886-.94087-.07831-.23551a1.47968,1.47968,0,0,0-.6665-.15662l-.23492-.19606a.85336.85336,0,0,1-.58819-.11776l-.39213.11776a2.47685,2.47685,0,0,0-.23493-.431q-.47072-.90144-.6665-1.29356a3.587,3.587,0,0,0-.50988-.78425l-.66649-.27437a.13335.13335,0,0,1-.03887-.098.13523.13523,0,0,0-.03944-.098.42946.42946,0,0,1,.03944-.29409.76647.76647,0,0,1,.31324-.3724,1.54769,1.54769,0,0,0,.58819-.58819,1.45683,1.45683,0,0,0,.07831-.62706,18.77551,18.77551,0,0,0-.333-2.97981q-.33413-1.92031-.37241-2.27329a3.47552,3.47552,0,0,0-.35326-1.25469,1.25106,1.25106,0,0,1-.23493-.43157l-.15662.03945-.11775-.07831-.03944-.43157.31381-.03887-.27437-.15662-.07831-.23551.35268-.11775.27438.03945-.39213-.35269.03944-.19606.5093.23493a.47391.47391,0,0,1-.23492-.47044v-.11775l.23492.07889v-.1572a.35649.35649,0,0,0,.23551,0h.35268a2.188,2.188,0,0,1,1.01918.54874,2.75275,2.75275,0,0,0,.78426.706.60176.60176,0,0,1,.31381.39212,1.0573,1.0573,0,0,0,.27438.5093,1.10939,1.10939,0,0,1,.27437.43158,2.38253,2.38253,0,0,0,.23493.431q.58818.98059,1.37244,2.54824l.11717-.07831a.18488.18488,0,0,0,.19607.15662l.11775.19606a1.88,1.88,0,0,0,.11775.54874l.50988.31382a1.038,1.038,0,0,0-.11775.47044,1.29492,1.29492,0,0,0,.07831.45071.82975.82975,0,0,0,.15662.2941.41542.41542,0,0,0,.1572.19606l.11717-.23493.19606-.31382.19607-.431a2.55688,2.55688,0,0,1,.23551-.39212,10.6408,10.6408,0,0,0,.5876-.94087,10.42008,10.42008,0,0,1,2.07781-2.70544,5.11768,5.11768,0,0,0,.74481-.82312,1.57443,1.57443,0,0,1,.50988-.5093l.78425-.6665.19606-.11775.11718-.11776c.23551-.15662.43737-.29989.60791-.431q.25494-.19578.41185-.31382a3.01312,3.01312,0,0,1,.47043-.27437.97733.97733,0,0,0,.39155-.23551,1.31818,1.31818,0,0,1,.50988-.27437,8.47557,8.47557,0,0,0,1.17638-.70536l.6665-.58819-.07889-.31382.19606.03944Z" transform="translate(-125.82667 -320.68621)"/><path class="cls-4" d="M155.23929,338.33434l.07831.03886a7.15317,7.15317,0,0,0,1.09748.07889,2.28332,2.28332,0,0,0,.54875-.07889,1.40047,1.40047,0,0,1,.39213-.03886,2.041,2.041,0,0,1,.627.07831l.8237.23551.35268.15662.23493.23492a1.51607,1.51607,0,0,0,.35326.1572.94791.94791,0,0,1,.23493.15662l.43157.431a6.89041,6.89041,0,0,0,.627.902,1.47942,1.47942,0,0,1,.35268.68622,3.23,3.23,0,0,1,.11776.80339,2.04808,2.04808,0,0,0,.07831.74481,6.42006,6.42006,0,0,1,.07831.82312l-.03887.35326.03887.23493a.52972.52972,0,0,0,.11775.27437.73346.73346,0,0,1,.07831.098c.0261.03945.065.098.11775.17634a2.69426,2.69426,0,0,1-.098.41185,1.05051,1.05051,0,0,0-.05859.333,1.227,1.227,0,0,0,.07831.35326.66185.66185,0,0,1-.07831.54875,1.23825,1.23825,0,0,0-.15719.627,1.96393,1.96393,0,0,1-.19607.62764,3.47744,3.47744,0,0,0-.23492.58761,1.00655,1.00655,0,0,1-.19607.47043,4.75971,4.75971,0,0,0-.39212.62764l-.86257.78367-.07831.11775a18.78978,18.78978,0,0,1-3.21474,2.74431l-.431.431-.2355.07889c-.05279.0261-.27438.14386-.6665.35268a7.39709,7.39709,0,0,1-2.54824.78425q-.70566.07831-1.01919.07831a4.10143,4.10143,0,0,1-1.13693-.1572,2.1878,2.1878,0,0,0-.47044-.07831h-.11775a1.826,1.826,0,0,1-.862-.25465,6.24407,6.24407,0,0,1-1.09807-.64677l-.62706-.86256a2.85265,2.85265,0,0,1-.54874-1.92119,3.63961,3.63961,0,0,0-.03944-.82312l-.11776-.07831c.07889-.261.10441-.37878.07889-.35268a.16175.16175,0,0,0,.03887-.11775.3406.3406,0,0,1,.03944-.15662,2.75667,2.75667,0,0,0-.03944-.74539,6.527,6.527,0,0,1-.07831-.70536v-.19607a2.24789,2.24789,0,0,0,.03944-.431.60949.60949,0,0,1,.03887-.35326,3.49759,3.49759,0,0,0,.15719-.78367,3.49131,3.49131,0,0,1,.31324-1.17638,4.50737,4.50737,0,0,0,.31382-.6665,1.73676,1.73676,0,0,0,.07831-.54875l.19606-.11775.19606-.431a2.732,2.732,0,0,1,.25465-.5296,4.529,4.529,0,0,1,.33354-.48958.45366.45366,0,0,0,.15662-.31382l.11776-.07831.5093-.6665.86256-.78425.1572-.31324.03886.07831a3.1346,3.1346,0,0,1,.58819-.58819l.47044-.2355.19606-.15662a1.23066,1.23066,0,0,1,.31324-.23493,1.84843,1.84843,0,0,1,.50988-.11775.31543.31543,0,0,1,.19606.03886c.18272.07889.31382.1311.39213.1572l.11775.19606.11717-.19606.1572-.07831a.17631.17631,0,0,0,.19607.03886v-.15661l.11717-.03945.11775-.11717Zm-1.84288,2.23442a.226.226,0,0,1-.15662-.03886.23193.23193,0,0,0-.1572.03886l-.35268.11776-.27437.27437a7.90884,7.90884,0,0,0-.86257.6665.46037.46037,0,0,0-.23492.39213.22593.22593,0,0,0,.03886.15661l-.11717-.15661-.19607.19606a3.0376,3.0376,0,0,1-.33354.3724,3.58179,3.58179,0,0,0-.45071.54875,8.0117,8.0117,0,0,0-.50988.96059q-.3524.70566-.58761,1.27383a2.51343,2.51343,0,0,0-.23551.84284,2.4006,2.4006,0,0,1-.19606.78426,3.8623,3.8623,0,0,0-.27437,1.60737,3.76193,3.76193,0,0,0,.07831.7448q.11747.47073.27437.54875a2.54719,2.54719,0,0,0,.74481.627,1.52808,1.52808,0,0,0,.45129.1572,2.78563,2.78563,0,0,0,.64678.07831h.19606l.31324-.03944a.15709.15709,0,0,0,.11775.03944.348.348,0,0,1,.15662.03944l.11775-.11775a.64789.64789,0,0,1,.31382-.03944.83058.83058,0,0,0,.431-.03887,1.37345,1.37345,0,0,1,.39213-.03944,2.142,2.142,0,0,0,.86256-.27438,9.8572,9.8572,0,0,0,1.96-1.29355,1.28325,1.28325,0,0,1,.78426-.47043,9.39232,9.39232,0,0,1,1.13693-1.21525,4.365,4.365,0,0,0,1.01918-1.45075,3.455,3.455,0,0,0,.15662-.90143,1.37682,1.37682,0,0,0-.07831-.43157.47385.47385,0,0,1-.03886-.431.6195.6195,0,0,0,0-.43157,1.22951,1.22951,0,0,1-.07889-.35268l-.11718-.27437a.626.626,0,0,1-.07889-.27438q0-.19577-.31323-.43157l-1.21525-.627a3.42562,3.42562,0,0,0-.902-.39213,1.55866,1.55866,0,0,1-.74481-.27437,3.52937,3.52937,0,0,0-.86256-.31382Z" transform="translate(-125.82667 -320.68621)"/><path class="cls-4" d="M177.36894,338.64816l.19606.19548.6665.07889a.77808.77808,0,0,1,.01915.29351.65488.65488,0,0,1-.1369.2941.52528.52528,0,0,0-.11775.31382.33889.33889,0,0,1-.23493.11775,1.52087,1.52087,0,0,0-.19607.54875l-.11775.31381a.48471.48471,0,0,0-.11775.27437l-.23493.6665a2.05775,2.05775,0,0,0-.19606.70537v.07831a1.60257,1.60257,0,0,1-.11776.54932,1.23494,1.23494,0,0,0-.15662.62706,3.62691,3.62691,0,0,1-.1572.58819l-.0783.35268v.11775a1.36677,1.36677,0,0,1-.15662.90143,1.47864,1.47864,0,0,0-.07831.58819,3.12355,3.12355,0,0,0,.03886.6665.44439.44439,0,0,1-.03886.31323.47982.47982,0,0,0,0,.275,1.30977,1.30977,0,0,1,.07831.39154.82277.82277,0,0,0,.11717.43157.22453.22453,0,0,1,.03945.27438c-.07831.13109-.105.22216-.07831.27437a1.82686,1.82686,0,0,1,.03886.47043,1.41359,1.41359,0,0,0,0,.47044,3.62945,3.62945,0,0,1,.03945.50988.97213.97213,0,0,1-.03945.35268l-.11717.74481a1.87972,1.87972,0,0,0,.54874.11775,1.02417,1.02417,0,0,0,.31382-.03944.57393.57393,0,0,1,.47043.03944c.13052.07831.22159.1311.27438.15662v.27437l-.35326.27438-.35269.35268v-.11718l-.35268.07831a.60026.60026,0,0,0-.23551.07831.27624.27624,0,0,1-.23492.03945,1.03952,1.03952,0,0,0-.31382.03886l-.74481.27437-.19606.23551-.27437-.1572-.15662.03945.15662.11775h-.15662l-.31382-.11775a1.19707,1.19707,0,0,0-.431-.11776.68818.68818,0,0,1-.31382-.0783l-.47043-.23493q-.47073-.62735-.50988-.6665a1.37538,1.37538,0,0,1-.23493-.58819L172.233,350.84a.97446.97446,0,0,1-.03886-.35268v-.15662a.65735.65735,0,0,0-.03945-.31382.06876.06876,0,0,1-.0783-.07831l-.1572.15662a2.64912,2.64912,0,0,0-.31324.431,1.54349,1.54349,0,0,0-.23551.58819,1.27493,1.27493,0,0,1-.431.70595,2.78744,2.78744,0,0,0-.49016.529,2.03309,2.03309,0,0,0-.21578.45071l-.58761.58819a8.81737,8.81737,0,0,1-1.21525.82312,1.58168,1.58168,0,0,1-.70594.23551l-.07831.11775a.986.986,0,0,0-.35268.03886.37619.37619,0,0,1-.275.03945.62359.62359,0,0,0-.35268.03886,1.46367,1.46367,0,0,1-.47044.07889,1.5302,1.5302,0,0,1-.82312-.19606l-.6665-.35326a3.921,3.921,0,0,1-.35268-.39155,2.37038,2.37038,0,0,0-.19606-.23551,2.08768,2.08768,0,0,1-.35268-.58819,7.73141,7.73141,0,0,1-.47044-2.35217,13.23035,13.23035,0,0,1,.31324-3.37136q.549-2.5877.78425-3.25361a5.56833,5.56833,0,0,0,.27437-.78425,3.91321,3.91321,0,0,1,.35269-.94087,2.26636,2.26636,0,0,1,.47043-.70594l.58819-.54875a.59742.59742,0,0,0,.431-.19606l.11776.11775.11775-.15662.50988.431a1.85667,1.85667,0,0,0,.35268.39213c.07831.0261.11776.1311.11776.31382a1.131,1.131,0,0,1-.35327.54874,2.1295,2.1295,0,0,0-.5093.78367,13.11652,13.11652,0,0,0-.49015,1.58823,12.42036,12.42036,0,0,0-.33354,1.74427l-.19549,1.21524a6.9539,6.9539,0,0,0-.07889.98032q0,.6665.05917,1.41131a3.15345,3.15345,0,0,0,.17634.97973l.31382.74539a2.20005,2.20005,0,0,0,.431.03886.84718.84718,0,0,0,.45071-.07831,3.75379,3.75379,0,0,0,.60791-.27437,2.77676,2.77676,0,0,0,.78368-.58819l.03944-.11775.15662-.07831a12.44241,12.44241,0,0,0,1.41131-1.72512l.11775-.07831,1.01918-1.45018-.07831-.11775.07831.03945.27437-.275a21.40121,21.40121,0,0,0,1.19611-1.90088,10.51819,10.51819,0,0,0,1.07776-2.05867,3.91152,3.91152,0,0,1,.35327-.94087q.43069-.78309.5093-.97973a5.48878,5.48878,0,0,1,.31381-.706q.07832-.07743.47044-.627l.5093-.47044a.43007.43007,0,0,1,.27437-.15661.26362.26362,0,0,0,.19606-.07889l.23551-.19549.11776.03887.15661-.19607.11776.03945.15662-.35268Z" transform="translate(-125.82667 -320.68621)"/><path class="cls-4" d="M191.10957,338.5304q.03828,0,1.01918-.27437a5.74136,5.74136,0,0,0,.70594.03887,2.6129,2.6129,0,0,1,.35268.0783l.27438.11776a1.59756,1.59756,0,0,0,.431.35268,2.4621,2.4621,0,0,1,.27495.47044,8.85193,8.85193,0,0,1,.19548,2.27387,19.92117,19.92117,0,0,1-.39154,3.60686,13.15688,13.15688,0,0,0-.31382,1.96q-.07919.70566-.13748,2.03894-.05829,1.333-.05858,1.8423a1.00154,1.00154,0,0,0,.03944.31382l.27437.07831a1.75535,1.75535,0,0,0,.5093.03886,4.92111,4.92111,0,0,0,2.039-.70536,6.07716,6.07716,0,0,1,1.01918-.47044v-.11775h.15661l.23551-.11775c.18214-.10384.37821-.20883.58819-.31324l-.11833.431a.61306.61306,0,0,1,.23551.07831,11.125,11.125,0,0,1-.98032.62763,5.20918,5.20918,0,0,0-.74481.5093,2.39222,2.39222,0,0,0-.35268.25523c-.10441.09166-.20941.17635-.31324.25465l-.94087.62706-.19606.19606-1.29413.82312-.54875.62763.07831.11776a.58116.58116,0,0,0-.27437.39154l-.27438.11776-.19606-.07831-.15662.15662-.07831-.07831-.27437.19606-.07889.15662-.27437.11775a.96971.96971,0,0,1-.431.07831,1.59743,1.59743,0,0,1-.54875-.11717l-.902-.31382-.86257-1.13693a3.07065,3.07065,0,0,1-.54874-.86256,1.51824,1.51824,0,0,0-.15662-.431,1.85622,1.85622,0,0,1-.11775-.82369,6.10547,6.10547,0,0,1,.23551-2.27329.75551.75551,0,0,0,.11717-.39213.63374.63374,0,0,1,.11775-.43157,3.46166,3.46166,0,0,0,.23551-.78367,9.1958,9.1958,0,0,1,.27437-.94087,2.846,2.846,0,0,0,.23493-.98032,2.53756,2.53756,0,0,1,.19606-.82312l.35327-.902-.11776-.15662.11776-.15662a.80363.80363,0,0,0,.03886-.35326,1.39427,1.39427,0,0,1,.15662-.62706l.07889-.35268v-.07831a.26448.26448,0,0,1-.07889-.19606c-.05221,0-.07831-.01334-.07831-.03945q-.03915,0-.23493.19607a8.682,8.682,0,0,0-.6665.627l-.54874.78425a2.34635,2.34635,0,0,0-.39213.6665,1.46061,1.46061,0,0,1-.31381.54875.59088.59088,0,0,0-.19607.31382,4.311,4.311,0,0,1-.47043.90142,2.78959,2.78959,0,0,0-.39213.74481.48779.48779,0,0,1-.15662.35326l-.23493.47044q-.11834.23493-.47043.90142a2.118,2.118,0,0,0-.31382.70595.30487.30487,0,0,1-.11775.27437,3.84966,3.84966,0,0,0-.333.5093,1.14163,1.14163,0,0,0-.17634.43157.42891.42891,0,0,1-.1572.19606,1.03381,1.03381,0,0,0-.19607.62706,2.96408,2.96408,0,0,1-.5093,1.09749,2.804,2.804,0,0,0-.47043.98031q-.07918.39243-.1572.431c-.07831.02668-.11717.11775-.11717.27437a.8319.8319,0,0,1-.13748.45129,1.98644,1.98644,0,0,1-.25465.333c-.105.07831-.1572.14386-.1572.19606a.16175.16175,0,0,1-.03886.11776l-.11776.11717-.50988.23551-.47043-.19606-.03887-.11776-.54874-.23493-.03945-.2355c0-.02553-.0261-.065-.07831-.11718-.07831-.10441-.13109-.17-.15661-.19606l.11717-.23551-.15662-.19606-.70536-.07831-.11776-.19606.19607-.54875a.319.319,0,0,1,.07831-.23551l.15661-.15661a.52911.52911,0,0,1,.07831-.70537.09848.09848,0,0,1,0-.1572,2.49839,2.49839,0,0,0,.1572-.6665,1.44509,1.44509,0,0,1,.03887-.54874l.43157-.27437a3.49149,3.49149,0,0,1,.35268-.82312q.19577-.549.50988-1.50934a5.79058,5.79058,0,0,0,.31324-1.19552.84446.84446,0,0,1,.11775-.54933,12.09649,12.09649,0,0,0,.45071-1.48961q.33238-1.25382.49016-2.15612l.15662-1.05862a1.88958,1.88958,0,0,0-.07831-.58819c-.0261-.05163-.11775-.27437-.27437-.66592L182.72,340.255l-.23551-.11718-.31324-.07831.15662-.15719.47044-.11776L182.72,339.589a.22647.22647,0,0,0,.15661-.03945.11572.11572,0,0,1,.07831-.03944l.1572.03944.47044.19607a1.00151,1.00151,0,0,1-.03945-.31382l-.11775-.23493a1.80182,1.80182,0,0,1-.31324-.47043.22348.22348,0,0,0,.15662-.03945l.35268.07831.47044.1572a2.07908,2.07908,0,0,0,.35326.627,4.02978,4.02978,0,0,1,.15662.78426q.03828.39242.03944,1.45017a8.87761,8.87761,0,0,1-.11775,1.52906,20.70012,20.70012,0,0,1-.54875,2.31273,1.55533,1.55533,0,0,0-.15719.70595,3.54943,3.54943,0,0,1-.15662.627,1.23888,1.23888,0,0,0-.11776.47044l-.11775.66649.58819-.82311a13.64094,13.64094,0,0,0,.8237-1.41131,13.08,13.08,0,0,1,1.058-1.72512,11.10134,11.10134,0,0,0,.62764-1.09749,3.57435,3.57435,0,0,1,.5093-.78426l1.05862-1.4113q.66649-.70566,1.05863-1.05863a6.25393,6.25393,0,0,1,.97973-.764A3.33544,3.33544,0,0,1,191.10957,338.5304Z" transform="translate(-125.82667 -320.68621)"/><path class="cls-5" d="M206.7517,339.88258a5.25432,5.25432,0,0,1,.8817-.39212,4.75743,4.75743,0,0,1,.8237-.17635q.449-.05916.76453-.098c.28655.02611.54178.05279.76337.07831a5.00553,5.00553,0,0,0,.56847.03945,1.75167,1.75167,0,0,1,.5499.07831,4.75871,4.75871,0,0,1,.43041.27437,5.37372,5.37372,0,0,0,.3144.5093,1.41183,1.41183,0,0,1,.07773.43157,5.84,5.84,0,0,0,.07889.98032l.15662.03886.03944-.11775a1.60236,1.60236,0,0,1,.94087-.27438l.2738.23551a1.12919,1.12919,0,0,0,.03944.39213,1.44341,1.44341,0,0,1-.09745.47043.71952.71952,0,0,1-.21579.35269c-.07889.0261-.14385.17-.19606.431a.68044.68044,0,0,1-.19606.39212q-.11834.04-.11834.31382a2.14561,2.14561,0,0,1-.07773.431l-.15661.54875q-.11834.70565-.23551,1.13693a6.086,6.086,0,0,0-.23551,1.29413l-.11717.90143a1.83324,1.83324,0,0,0-.03945.431v.07889a.30592.30592,0,0,1-.11717.27437,1.46,1.46,0,0,0-.07889.58761,5.49488,5.49488,0,0,1-.07889.902l-.23435,1.01918c-.10557.52322-.19606.91535-.27495,1.17638a2.39518,2.39518,0,0,0-.03945.47043,1.89882,1.89882,0,0,1-.03828.431l-.03944.31381.03944.23493a.2719.2719,0,0,1-.03944.31382c-.10558.05278-.1311.24885-.07889.58819a3.17422,3.17422,0,0,1,.03944.5093v.11775a.69637.69637,0,0,0-.07889.31382l-.07773.03886a.158.158,0,0,0,.03945.11776c.051.0522.051.14327,0,.27437a2.49145,2.49145,0,0,0,.07773.78425,1.20815,1.20815,0,0,1,.03944.35268,7.26427,7.26427,0,0,1-.21578,1.56793,13.72188,13.72188,0,0,1-.41185,1.4902,1.59711,1.59711,0,0,1-.31324.627.33562.33562,0,0,0-.11717.23493.64383.64383,0,0,1-.23551.39212,9.05439,9.05439,0,0,0-.78426,1.01918l-.31323.23551-.3144.27437a5.01739,5.01739,0,0,0-.62647.27438,1.58315,1.58315,0,0,1-.62764.11775l-.15662-.03944a.16325.16325,0,0,1-.11833-.03887l-.62647.39213a1.07178,1.07178,0,0,0-.3144-.11776l-.78309-.07831a.65487.65487,0,0,1-.3144,0l-.23435-.03944a1.55854,1.55854,0,0,0-.275.07831.28852.28852,0,0,0-.19606-.1369,1.60815,1.60815,0,0,0-.275-.01972,19.918,19.918,0,0,1-2.391.11775l-.11717-.11775a1.75108,1.75108,0,0,0,.7448-.31382l-.11833-.19606-.391-.03886.2738-.11776-.07889-.15662.31439-.1572,1.05805-.35268a15.53523,15.53523,0,0,0,1.5685-.58819,6.317,6.317,0,0,0,.72509-.41126,3.33945,3.33945,0,0,0,.45129-.37241,14.594,14.594,0,0,1,.94088-1.21582,5.64374,5.64374,0,0,0,.54874-.82312,11.61467,11.61467,0,0,0,1.0186-3.528q.04-.27408.43157-2.58768a11.3766,11.3766,0,0,1,.74481-2.94037,3.89873,3.89873,0,0,0,.19606-.97974,2.4329,2.4329,0,0,1,.19607-.82369q.15661-.509.333-1.11722a3.60535,3.60535,0,0,0,.17634-.84284l-1.60679,1.76457-.98032.78368-.19606.31381-1.01976.70537-.15662.15719a13.0592,13.0592,0,0,0-1.21467.74481,3.72357,3.72357,0,0,1-1.01976.54875q-.70478.3141-1.058.431a3.72826,3.72826,0,0,1-1.60795.54932,1.6777,1.6777,0,0,1-.94087-.19606,1.94205,1.94205,0,0,1-.46986-.23551,2.88925,2.88925,0,0,1-.3144-.27437,6.929,6.929,0,0,1-.1949-.74481l-.03944-.31382.03944-.47043a9.51988,9.51988,0,0,1,.862-2.97923,13.48526,13.48526,0,0,1,1.13694-2.03836,10.78822,10.78822,0,0,1,1.25411-1.60737l1.48961-1.52907q.70653-.62647,1.275-1.05862A9.41051,9.41051,0,0,1,206.7517,339.88258Zm2.90034.431a1.16458,1.16458,0,0,1-.43041,0,3.091,3.091,0,0,0-.84342.21579,7.862,7.862,0,0,0-1.23439.56847,9.16108,9.16108,0,0,0-1.0592.70536q-.39155.315-1.17638,1.05862-.50988.62734-.862.98032a9.75229,9.75229,0,0,0-1.03948,1.68568,9.17657,9.17657,0,0,0-.80282,1.80343l-.07889.5093a1.11733,1.11733,0,0,0,.11834.50988,3.23442,3.23442,0,0,1,.15661.35269,2.2181,2.2181,0,0,0,.46986.39212,1.739,1.739,0,0,0,1.13693.35268,2.50654,2.50654,0,0,0,.86315-.15662,1.99694,1.99694,0,0,0,.60675-.17634,5.52592,5.52592,0,0,0,.70652-.41184c.27379-.18215.50234-.32658.68564-.431l1.25411-1.37244a7.82963,7.82963,0,0,0,.78425-.97973q.50988-.66651.94087-1.13694a2.18361,2.18361,0,0,0,.5093-1.31327q.07831-.84314.07889-1.97978a5.65814,5.65814,0,0,0-.15661-.62763l-.23551-.5093Z" transform="translate(-125.82667 -320.68621)"/><path class="cls-4" d="M229.58894,331.65713a5.38262,5.38262,0,0,0,.66531.04254,4.50132,4.50132,0,0,1,.62214.04316q.38661.08665.47232,0l.08633-.04316.386.12887a1.18022,1.18022,0,0,0,.51421.0857,2.31265,2.31265,0,0,1,.6869.10729,1.20045,1.20045,0,0,1,.47231.23616.53848.53848,0,0,0,.25648.25711,3.42833,3.42833,0,0,0,.25774.558,2.07538,2.07538,0,0,1,.21458.944.344.344,0,0,1-.04317.21457c-.08507.20061-.14348.34282-.17141.42915l-.25774.17141-.42915-.51485-.21458-.04317a.67616.67616,0,0,0,.17268.25774.41646.41646,0,0,1-.04317.30028.591.591,0,0,0-.08634.42915.38858.38858,0,0,1-.12823.34345l-.30092.34281a.35955.35955,0,0,1,0-.34281q0-.08571-.1714-.25775a8.50649,8.50649,0,0,0-1.11478-.68626,4.27563,4.27563,0,0,0-1.116-.30027,9.5964,9.5964,0,0,0-1.58709-.12888,13.57482,13.57482,0,0,0-3.90424.51486,10.92368,10.92368,0,0,0-1.52361.53643q-.49327.23616-1.13763.62214l-.21457.21458-.386.25711-.29964.42915a1.37476,1.37476,0,0,0-.21457.81513,1.27916,1.27916,0,0,0,.04317.386,3.18265,3.18265,0,0,0,.10665.40756,1.98291,1.98291,0,0,0,.23616.45074,2.45371,2.45371,0,0,0,.25774.34344c.17141.14348.40757.34281.70721.60056a3.54619,3.54619,0,0,0,.83671.55738l.77324.38662a8.86511,8.86511,0,0,0,1.32934.60056,16.83658,16.83658,0,0,0,1.7166.55738,20.99768,20.99768,0,0,1,4.24706,1.8023,12.13355,12.13355,0,0,1,1.3941.83672q.36567.279,1.00939.87925l.857,1.07287a4.34885,4.34885,0,0,1,.47232.68626,2.22513,2.22513,0,0,1,.34281,1.07287l-.0419.25711a1.06452,1.06452,0,0,0-.02158.365,2.0351,2.0351,0,0,1,.02158.2787,1.63093,1.63093,0,0,1-.12951.51485,4.01935,4.01935,0,0,1-.55738.98653,7.40255,7.40255,0,0,1-.73007.90147l-.68562.772a12.27067,12.27067,0,0,1-2.5749,1.888l.42915-.8583-.21457-.21458a1.91931,1.91931,0,0,0-.40757.04317,1.41757,1.41757,0,0,0-.45073.21458,1.17654,1.17654,0,0,1-.471.21457.41984.41984,0,0,1-.30091-.0857.69357.69357,0,0,0-.29964-.08634,4.99942,4.99942,0,0,0-.73007.34345,2.52233,2.52233,0,0,1-1.15794.386,9.558,9.558,0,0,0-1.45885.34345l-.12951-.08571a2.064,2.064,0,0,0-.55739-.1714.48933.48933,0,0,0-.21457.04253,1.48591,1.48591,0,0,1-.47232.0857,4.98738,4.98738,0,0,0-.68562.04317l-.08634-.0857-.8583.0857-.29964-.34344a2.93942,2.93942,0,0,1-.94464-.42915.46112.46112,0,0,0-.34281-.12824h-.08634a1.06777,1.06777,0,0,1-.42788,0,1.51191,1.51191,0,0,0-.42915-.04317,2.38446,2.38446,0,0,1-.77323-.17141,4.90072,4.90072,0,0,0-1.37252-.25774q-.90082-.08569-1.07287-.30028a.93381.93381,0,0,0-.471-.21457,1.98816,1.98816,0,0,1-.8164-.12887l-.1714-.12824.08633-.12887a.8391.8391,0,0,0,.55739-.12887l-.08507-.21458a1.80925,1.80925,0,0,0,.55739-.25711l-.04317-.25774.34281-.17141a4.00337,4.00337,0,0,1,.73006-.21457q1.32935-.12855,1.7585-.17141a9.0036,9.0036,0,0,0,4.03375-1.0297,26.75411,26.75411,0,0,0,3.00278-2.10258l.98654-.90083.17267-.34345-.25774-.12887a3.659,3.659,0,0,0-.579-.32187,6.05848,6.05848,0,0,0-.83672-.32122,1.3489,1.3489,0,0,1-.772-.34345,6.69023,6.69023,0,0,0-1.33062-.60055,8.57049,8.57049,0,0,1-1.80166-.8583,11.10265,11.10265,0,0,1-1.20111-.772q-.38663-.3-1.02971-.90146l-.34408-.42915a1.61976,1.61976,0,0,0-.25774-.30028,1.744,1.744,0,0,1-.42788-.68626,2.18032,2.18032,0,0,1-.17268-1.0297,2.855,2.855,0,0,1,.60056-1.8023,1.10405,1.10405,0,0,0,.21457-.7288v-.25774l-.0419-.386a2.34378,2.34378,0,0,1,.08507-.51485,2.03128,2.03128,0,0,1,.55739-.944l.77323-.77259,1.07287-.772a10.45262,10.45262,0,0,1,3.26052-1.33q1.15794-.3,2.2524-.47231a5.60291,5.60291,0,0,1,1.60868-.08571l.386.04317.1714-.04317a.17666.17666,0,0,1,.12951-.04253Zm-10.81127,10.16818a.35.35,0,0,1,.08507-.25711.47612.47612,0,0,0,.08634.60056A.40759.40759,0,0,1,218.77767,341.82531Z" transform="translate(-125.82667 -320.68621)"/></g></svg>